<svg
        width="80"
        height="80"
        viewBox="0 0 650 354"
        fill="#FFA500"
        xmlns="http://www.w3.org/2000/svg"
      >
        <path d="M81.799 83.9089C81.799 50.7454 30.5997 70.0908 5 83.9089V318.48H23.5058V147.607C24.2769 139.181 28.0397 119.196 36.9225 106.658C80.8737 73.2926 54.503 122.33 36.9225 173.895C22.8581 215.147 39.0815 222.764 48.9513 221.416L54.503 250.737C58.9752 249.726 68.7525 240.121 72.0835 209.789C56.5386 204.531 56.3536 169.851 58.2042 153.168C62.8306 144.574 74.0266 118.69 81.799 83.9089Z" />
        <path d="M141.943 91.4921C145.274 71.6748 114.338 70.765 98.4542 72.7872C97.8374 73.7983 99.0094 80.9768 108.632 101.603C118.255 122.229 134.849 103.457 141.943 91.4921Z" />
        <path d="M163.687 153.168C173.68 130.924 124.362 143.9 98.4542 153.168C94.9073 160.077 95.956 171.671 128.526 162.773C169.239 151.651 115.109 188.05 108.632 201.7C128.526 204.733 128.989 232.032 124.825 250.737C120.661 269.442 103.081 260.343 93.3652 298.764C83.6496 337.185 218.279 312.919 292.302 318.48C351.521 322.929 316.977 302.134 292.302 291.181C266.857 290.675 208.379 289.26 178.029 287.642C147.68 286.024 137.316 275.509 135.928 270.454C141.018 263.882 149.345 242.548 141.943 209.789C128.989 173.39 141.943 198.667 163.687 153.168Z" />
        <path d="M189.133 147.607C191.292 172.21 189.225 231.224 163.687 270.454C172.169 270.454 189.133 269.847 189.133 267.42C189.133 264.387 204.4 170.356 223.368 157.212C290.914 127.385 282.587 204.733 284.9 233.044C287.213 261.354 271.946 258.321 252.515 256.804C233.084 255.287 254.366 267.926 275.647 270.454C311.271 281.575 292.302 173.895 288.139 147.607C284.808 126.577 220.747 138.844 189.133 147.607Z" />
        <path d="M207.176 192.6C279.811 187.039 282.587 186.534 281.662 196.645C280.736 206.755 198.022 219.394 207.176 192.6Z" />
        <path d="M202.549 222.427C274.259 219.899 283.512 215.855 281.662 227.483C279.811 239.11 190.983 238.099 202.549 222.427Z" />
        <path d="M81.799 83.9089C81.799 50.7454 30.5997 70.0908 5 83.9089V318.48H23.5058V147.607C24.2769 139.181 28.0397 119.196 36.9225 106.658C80.8737 73.2926 54.503 122.33 36.9225 173.895C22.8581 215.147 39.0815 222.764 48.9513 221.416L54.503 250.737C58.9752 249.726 68.7525 240.121 72.0835 209.789C56.5386 204.531 56.3536 169.851 58.2042 153.168C62.8306 144.574 74.0266 118.69 81.799 83.9089Z" />
        <path d="M141.943 91.4921C145.274 71.6748 114.338 70.765 98.4542 72.7872C97.8374 73.7983 99.0094 80.9768 108.632 101.603C118.255 122.229 134.849 103.457 141.943 91.4921Z" />
        <path d="M163.687 153.168C173.68 130.924 124.362 143.9 98.4542 153.168C94.9073 160.077 95.956 171.671 128.526 162.773C169.239 151.651 115.109 188.05 108.632 201.7C128.526 204.733 128.989 232.032 124.825 250.737C120.661 269.442 103.081 260.343 93.3652 298.764C83.6496 337.185 218.279 312.919 292.302 318.48C351.521 322.929 316.977 302.134 292.302 291.181C266.857 290.675 208.379 289.26 178.029 287.642C147.68 286.024 137.316 275.509 135.928 270.454C141.018 263.882 149.345 242.548 141.943 209.789C128.989 173.39 141.943 198.667 163.687 153.168Z" />
        <path d="M189.133 147.607C191.292 172.21 189.225 231.224 163.687 270.454C172.169 270.454 189.133 269.847 189.133 267.42C189.133 264.387 204.4 170.356 223.368 157.212C290.914 127.385 282.587 204.733 284.9 233.044C287.213 261.354 271.946 258.321 252.515 256.804C233.084 255.287 254.366 267.926 275.647 270.454C311.271 281.575 292.302 173.895 288.139 147.607C284.808 126.577 220.747 138.844 189.133 147.607Z" />
        <path d="M207.176 192.6C279.811 187.039 282.587 186.534 281.662 196.645C280.736 206.755 198.022 219.394 207.176 192.6Z" />
        <path d="M202.549 222.427C274.259 219.899 283.512 215.855 281.662 227.483C279.811 239.11 190.983 238.099 202.549 222.427Z" />
        <path d="M184.82 4.24145C187.933 32.0948 164.256 39.0581 152.028 39.0581C138.133 48.2204 118.68 64.4682 152.028 56.1611C193.713 45.7771 184.82 43.3339 165.367 73.8748C145.915 104.416 171.481 98.3076 189.823 78.1506C208.164 57.9935 205.941 50.0529 217.613 48.2204C263.188 37.8365 271.525 23.7877 255.963 23.7877C205.941 39.669 208.72 28.0634 210.387 12.7929C212.055 -2.47756 197.048 -0.0342857 184.82 4.24145Z" />
        <path d="M278.811 64.7194C267.971 62.8466 237.326 62.2127 201.473 74.6598C182.039 91.5152 220.906 90.2186 232.408 86.7611C243.91 83.3036 230.822 108.371 220.906 110.964C166.968 122.201 201.473 129.98 254.222 130.412C306.971 130.844 301.418 110.099 289.123 110.964C276.828 111.828 247.479 110.532 247.479 99.7268C248.273 85.8967 251.049 85.0323 274.845 81.5748C293.883 78.8088 285.422 69.1854 278.811 64.7194Z" />
        <path d="M635.079 92.6979C619.205 89.6811 619.016 69.7815 620.905 60.2088C625.63 55.2774 637.063 40.4252 645 20.4675C645 1.43818 592.716 12.5386 566.574 20.4675V155.066H585.472V57.0179C586.259 52.1832 590.102 40.7153 599.173 33.5212C644.055 14.3758 617.126 42.5138 599.173 72.1021C584.811 95.7728 601.378 100.143 611.456 99.3698L617.126 116.195C621.693 115.614 631.677 110.103 635.079 92.6979Z" />
        <path d="M352.64 71.816C332.308 60.3734 332.308 60.3734 380.705 21.5957C406.136 -10.613 396.456 31.6257 388.438 56.7711C373.641 70.1208 354.359 93.5993 395.597 80.7158C447.145 64.6114 431.394 84.3181 395.597 136.234C359.8 188.149 340.04 159.754 362.377 131.784C384.715 103.813 387.006 96.3964 340.04 103.601C293.074 110.806 372.973 83.2586 352.64 71.816Z" />

        <path d="M365.259 223.809C352.06 211.033 440.2 172.657 485.919 155.065C536.81 172.961 634.603 211.094 618.646 220.463C602.689 229.831 530.736 195.064 496.754 176.51L485.919 169.818C451.199 193.138 378.458 236.584 365.259 223.809Z" />
        <path d="M365.259 223.809C352.06 211.033 440.2 172.657 485.919 155.065C536.81 172.961 634.603 211.094 618.646 220.463C602.689 229.831 530.736 195.064 496.754 176.51L485.919 169.818C451.199 193.138 378.458 236.584 365.259 223.809Z" />

        <path d="M450.319 76.753C504.766 74.9464 535.249 81.7114 525.61 85.6256C517.899 88.7569 467.252 80.3661 450.319 76.753Z" />
        <path d="M464.326 64.0129C518.774 62.2063 549.84 67.6063 540.201 71.5205C532.49 74.6518 481.26 67.626 464.326 64.0129Z" />
        <path d="M450.319 76.753C504.766 74.9464 535.249 81.7114 525.61 85.6256C517.899 88.7569 467.252 80.3661 450.319 76.753Z" />
        <path d="M464.326 64.0129C518.774 62.2063 549.84 67.6063 540.201 71.5205C532.49 74.6518 481.26 67.626 464.326 64.0129Z" />
        <path d="M490.008 12.5967C487.907 42.0811 458.782 49.4522 444.483 49.4522C429.6 49.4522 444.483 67.4249 438.938 112.015C433.393 156.606 472.498 152.738 485.922 144.776C527.361 127.713 535.241 149.326 541.369 137.723C547.498 126.121 474.833 106.453 492.634 119.523C510.436 132.593 493.801 137.496 461.701 121.798C429.6 106.1 499.054 107.238 515.397 102.233C531.739 97.2278 463.452 89.4927 454.113 82.2126C444.775 74.9325 462.576 62.6474 485.922 53.5473C532.906 36.4845 515.105 49.4522 541.369 55.5948C567.634 61.7374 490.008 112.925 529.696 99.2753C569.384 85.6251 564.132 33.2995 537.284 36.0295C510.436 38.7595 492.634 -24.2587 490.008 12.5967Z" />
        <path d="M494.816 280.194C457.02 265.491 488.275 258.704 527.04 258.704C528.09 259.157 530.529 259.79 531.885 258.704C566.047 255.764 505.961 252.597 476.887 255.085C439.091 278.611 452.659 249.43 445.148 231.559C437.637 213.689 504.992 222.963 527.04 222.963C563.14 216.629 539.396 250.335 544 258.704C548.603 267.074 554.902 235.179 554.902 227.714C580.342 208.938 497.239 207.129 457.989 206.45C418.739 205.771 423.585 241.739 427.219 267.979C449.025 277.254 426.25 344.438 459.927 345.343C493.605 346.248 527.04 319.329 499.177 324.079C471.315 328.83 462.835 316.388 462.835 292.862C448.298 269.336 588.822 329.508 568.47 316.388C548.119 303.268 546.665 295.351 568.47 267.979C568.955 239.477 532.612 294.898 494.816 280.194Z" />
        <path d="M451.689 229.976C534.066 229.976 552.237 231.559 540.607 237.441C531.304 242.146 477.452 234.424 451.689 229.976Z" />
        <path d="M539.154 250.108C506.526 245.735 443.936 238.436 454.597 244.227C465.257 250.018 515.41 250.561 539.154 250.108Z" />
        <path d="M451.689 229.976C534.066 229.976 552.237 231.559 540.607 237.441C531.304 242.146 477.452 234.424 451.689 229.976Z" />
        <path d="M539.154 250.108C506.526 245.735 443.936 238.436 454.597 244.227C465.257 250.018 515.41 250.561 539.154 250.108Z" />
      </svg>