<svg width="42" height="87" viewBox="0 0 42 87" fill="none" xmlns="http://www.w3.org/2000/svg">
<path d="M11.4522 10.2049C11.4522 6.12321 5.15073 8.50418 2 10.2049V39.0752H4.27764V18.0446C4.37254 17.0076 4.83566 14.5479 5.92892 13.0048C11.3383 8.89825 8.09268 14.9336 5.92892 21.2801C4.19792 26.3573 6.19465 27.2947 7.40939 27.1288L8.09268 30.7376C8.6431 30.6131 9.84646 29.431 10.2564 25.6978C8.34321 25.0507 8.32044 20.7824 8.54821 18.7291C9.11761 17.6713 10.4956 14.4856 11.4522 10.2049Z" fill="#FFA500"/>
<path d="M18.8535 11.1372C19.2635 8.69819 15.456 8.58621 13.5011 8.8351C13.4252 8.95954 13.5694 9.84305 14.7537 12.3817C15.9381 14.9202 17.9804 12.6098 18.8535 11.1372Z" fill="#FFA500"/>
<path d="M21.5289 18.7284C22.7588 15.9907 16.6889 17.5877 13.5002 18.7284C13.0637 19.5788 13.1927 21.0057 17.2013 19.9106C22.2122 18.5417 15.55 23.0216 14.7529 24.7016C17.2013 25.0749 17.2583 28.4348 16.7458 30.7369C16.2333 33.0391 14.0697 31.9192 12.8739 36.6479C11.6781 41.3767 28.2479 38.3901 37.3584 39.0745C44.6469 39.6221 40.3953 37.0627 37.3584 35.7146C34.2267 35.6524 27.0294 35.4782 23.294 35.2791C19.5588 35.0799 18.2832 33.7858 18.1124 33.1636C18.7388 32.3548 19.7637 29.729 18.8527 25.6972C17.2583 21.2173 18.8527 24.3283 21.5289 18.7284Z" fill="#FFA500"/>
<path d="M24.6592 18.0444C24.9249 21.0725 24.6705 28.3357 21.5273 33.164C22.5713 33.164 24.6592 33.0893 24.6592 32.7906C24.6592 32.4173 26.5382 20.8443 28.8727 19.2265C37.1861 15.5555 36.1612 25.0753 36.4459 28.5597C36.7305 32.044 34.8515 31.6707 32.46 31.484C30.0685 31.2973 32.6878 32.8529 35.307 33.164C39.6915 34.5328 37.3569 21.2798 36.8445 18.0444C36.4345 15.4561 28.5501 16.9659 24.6592 18.0444Z" fill="#FFA500"/>
<path d="M26.88 23.5814C35.8197 22.897 36.1614 22.8348 36.0475 24.0793C35.9336 25.3236 25.7534 26.8791 26.88 23.5814Z" fill="#FFA500"/>
<path d="M26.3114 27.2532C35.1372 26.9421 36.2761 26.4444 36.0484 27.8755C35.8206 29.3065 24.8879 29.1821 26.3114 27.2532Z" fill="#FFA500"/>
<path d="M11.4522 10.2049C11.4522 6.12321 5.15073 8.50418 2 10.2049V39.0752H4.27764V18.0446C4.37254 17.0076 4.83566 14.5479 5.92892 13.0048C11.3383 8.89825 8.09268 14.9336 5.92892 21.2801C4.19792 26.3573 6.19465 27.2947 7.40939 27.1288L8.09268 30.7376C8.6431 30.6131 9.84646 29.431 10.2564 25.6978C8.34321 25.0507 8.32044 20.7824 8.54821 18.7291C9.11761 17.6713 10.4956 14.4856 11.4522 10.2049Z" fill="#FFA500"/>
<path d="M18.8535 11.1372C19.2635 8.69819 15.456 8.58621 13.5011 8.8351C13.4252 8.95954 13.5694 9.84305 14.7537 12.3817C15.9381 14.9202 17.9804 12.6098 18.8535 11.1372Z" fill="#FFA500"/>
<path d="M21.5289 18.7284C22.7588 15.9907 16.6889 17.5877 13.5002 18.7284C13.0637 19.5788 13.1927 21.0057 17.2013 19.9106C22.2122 18.5417 15.55 23.0216 14.7529 24.7016C17.2013 25.0749 17.2583 28.4348 16.7458 30.7369C16.2333 33.0391 14.0697 31.9192 12.8739 36.6479C11.6781 41.3767 28.2479 38.3901 37.3584 39.0745C44.6469 39.6221 40.3953 37.0627 37.3584 35.7146C34.2267 35.6524 27.0294 35.4782 23.294 35.2791C19.5588 35.0799 18.2832 33.7858 18.1124 33.1636C18.7388 32.3548 19.7637 29.729 18.8527 25.6972C17.2583 21.2173 18.8527 24.3283 21.5289 18.7284Z" fill="#FFA500"/>
<path d="M24.6592 18.0444C24.9249 21.0725 24.6705 28.3357 21.5273 33.164C22.5713 33.164 24.6592 33.0893 24.6592 32.7906C24.6592 32.4173 26.5382 20.8443 28.8727 19.2265C37.1861 15.5555 36.1612 25.0753 36.4459 28.5597C36.7305 32.044 34.8515 31.6707 32.46 31.484C30.0685 31.2973 32.6878 32.8529 35.307 33.164C39.6915 34.5328 37.3569 21.2798 36.8445 18.0444C36.4345 15.4561 28.5501 16.9659 24.6592 18.0444Z" fill="#FFA500"/>
<path d="M26.88 23.5814C35.8197 22.897 36.1614 22.8348 36.0475 24.0793C35.9336 25.3236 25.7534 26.8791 26.88 23.5814Z" fill="#FFA500"/>
<path d="M26.3114 27.2532C35.1372 26.9421 36.2761 26.4444 36.0484 27.8755C35.8206 29.3065 24.8879 29.1821 26.3114 27.2532Z" fill="#FFA500"/>
<path d="M24.1303 0.398948C24.5134 3.82705 21.5993 4.68407 20.0944 4.68407C18.3842 5.81174 15.99 7.81147 20.0944 6.78906C25.2248 5.51103 24.1303 5.21033 21.7361 8.96921C19.342 12.7281 22.4886 11.9763 24.7461 9.49546C27.0034 7.01458 26.7298 6.03728 28.1664 5.81174C33.7756 4.53372 34.8017 2.80464 32.8864 2.80464C26.7298 4.75926 27.0718 3.33088 27.277 1.45143C27.4823 -0.428007 25.6353 -0.127297 24.1303 0.398948Z" fill="#FFA500"/>
<path d="M35.6983 7.8438C34.3642 7.6133 30.5925 7.53528 26.1798 9.06724C23.7879 11.1417 28.5716 10.9822 29.9872 10.5566C31.4028 10.1311 29.792 13.2163 28.5716 13.5354C21.9331 14.9185 26.1798 15.8759 32.672 15.929C39.1642 15.9822 38.4807 13.429 36.9675 13.5354C35.4543 13.6418 31.8421 13.4823 31.8421 12.1524C31.9398 10.4502 32.2815 10.3439 35.2102 9.91831C37.5534 9.57788 36.512 8.39346 35.6983 7.8438Z" fill="#FFA500"/>
<path d="M38.5447 55.2866C36.5909 54.9153 36.5677 52.4661 36.8002 51.2879C37.3817 50.681 38.7889 48.853 39.7657 46.3967C39.7657 44.0546 33.3308 45.4208 30.1133 46.3967V62.9627H32.4392V50.8952C32.5361 50.3002 33.009 48.8887 34.1255 48.0033C39.6494 45.6469 36.3351 49.1101 34.1255 52.7517C32.3578 55.665 34.3969 56.2029 35.6372 56.1077L36.3351 58.1785C36.8972 58.107 38.126 57.4288 38.5447 55.2866Z" fill="#FFA500"/>
<path d="M3.78467 52.7165C1.28227 51.3082 1.28226 51.3082 7.23882 46.5355C10.3688 42.5714 9.1774 47.77 8.19057 50.8648C6.3694 52.5079 3.99623 55.3975 9.07168 53.8119C15.416 51.8298 13.4775 54.2552 9.07168 60.6449C4.66589 67.0344 2.2339 63.5396 4.98307 60.0972C7.73236 56.6546 8.01433 55.7418 2.2339 56.6285C-3.54653 57.5153 6.28719 54.1248 3.78467 52.7165Z" fill="#FFA500"/>
<path d="M5.33582 71.4237C3.71133 69.8513 14.5593 65.1281 20.1863 62.9629C26.4498 65.1655 38.4859 69.8588 36.5219 71.0119C34.558 72.1649 25.7022 67.8858 21.5198 65.6023L20.1863 64.7786C15.9131 67.6488 6.96032 72.996 5.33582 71.4237Z" fill="#FFA500"/>
<path d="M5.33582 71.4237C3.71133 69.8513 14.5593 65.1281 20.1863 62.9629C26.4498 65.1655 38.4859 69.8588 36.5219 71.0119C34.558 72.1649 25.7022 67.8858 21.5198 65.6023L20.1863 64.7786C15.9131 67.6488 6.96032 72.996 5.33582 71.4237Z" fill="#FFA500"/>
<path d="M15.8086 53.3241C22.5098 53.1018 26.2615 53.9344 25.0752 54.4161C24.1261 54.8015 17.8927 53.7688 15.8086 53.3241Z" fill="#FFA500"/>
<path d="M17.5312 51.7551C24.2325 51.5328 28.056 52.1974 26.8697 52.6791C25.9207 53.0645 19.6154 52.1998 17.5312 51.7551Z" fill="#FFA500"/>
<path d="M15.8086 53.3241C22.5098 53.1018 26.2615 53.9344 25.0752 54.4161C24.1261 54.8015 17.8927 53.7688 15.8086 53.3241Z" fill="#FFA500"/>
<path d="M17.5312 51.7551C24.2325 51.5328 28.056 52.1974 26.8697 52.6791C25.9207 53.0645 19.6154 52.1998 17.5312 51.7551Z" fill="#FFA500"/>
<path d="M20.6913 45.4273C20.4328 49.0561 16.8481 49.9633 15.0883 49.9633C13.2565 49.9633 15.0883 52.1754 14.4058 57.6634C13.7233 63.1515 18.5363 62.6754 20.1884 61.6955C25.2886 59.5954 26.2585 62.2555 27.0127 60.8274C27.767 59.3995 18.8236 56.9788 21.0145 58.5874C23.2056 60.1961 21.1582 60.7995 17.2074 58.8674C13.2565 56.9354 21.8047 57.0754 23.8161 56.4594C25.8275 55.8434 17.4229 54.8914 16.2735 53.9954C15.1242 53.0994 17.3151 51.5874 20.1884 50.4674C25.9711 48.3673 23.7802 49.9633 27.0127 50.7194C30.2453 51.4754 20.6913 57.7754 25.576 56.0954C30.4607 54.4154 29.8143 47.9753 26.5099 48.3113C23.2056 48.6473 21.0145 40.8912 20.6913 45.4273Z" fill="#FFA500"/>
<path d="M21.2843 78.3625C16.6325 76.5529 20.4793 75.7176 25.2504 75.7176C25.3796 75.7733 25.6798 75.8512 25.8467 75.7176C30.0512 75.3557 22.656 74.966 19.0777 75.2722C14.4259 78.1677 16.0958 74.5762 15.1714 72.3767C14.2469 70.1773 22.5368 71.3187 25.2504 71.3187C29.6935 70.5391 26.7711 74.6876 27.3378 75.7176C27.9043 76.7477 28.6795 72.8222 28.6795 71.9034C31.8106 69.5925 21.5826 69.3699 16.7518 69.2863C11.921 69.2028 12.5175 73.6296 12.9647 76.8591C15.6485 78.0007 12.8455 86.2695 16.9903 86.3808C21.1353 86.4922 25.2504 83.1791 21.8211 83.7637C18.3919 84.3485 17.3482 82.8172 17.3482 79.9216C15.5591 77.0261 32.8543 84.4319 30.3494 82.8172C27.8447 81.2024 27.6658 80.228 30.3494 76.8591C30.4091 73.3512 25.9362 80.1722 21.2843 78.3625Z" fill="#FFA500"/>
<path d="M15.9766 72.1816C26.1153 72.1816 28.3517 72.3765 26.9203 73.1004C25.7753 73.6795 19.1474 72.7291 15.9766 72.1816Z" fill="#FFA500"/>
<path d="M26.7392 74.6596C22.7234 74.1214 15.02 73.223 16.3321 73.9358C17.6441 74.6485 23.8168 74.7153 26.7392 74.6596Z" fill="#FFA500"/>
<path d="M15.9766 72.1816C26.1153 72.1816 28.3517 72.3765 26.9203 73.1004C25.7753 73.6795 19.1474 72.7291 15.9766 72.1816Z" fill="#FFA500"/>
<path d="M26.7392 74.6596C22.7234 74.1214 15.02 73.223 16.3321 73.9358C17.6441 74.6485 23.8168 74.7153 26.7392 74.6596Z" fill="#FFA500"/>
</svg>
